PathFileType	4	(X/Y/Z)	TVC_39_BWA_06_walk_RCNL2025.trc
DataRate	CameraRate	NumFrames	NumMarkers	Units	OrigDataRate	OrigDataStartFrame	OrigNumFrames
100	100	9	27	mm	100	420	1118
Frame#	Time	R_Shoulder			L_Shoulder			C7			J_Notch			R_Elbow			L_Elbow			R_Wrist			L_Wrist			R_Asis			L_Asis			R_Psis			L_Psis			Sacral			Thoracic			Sternum			R_Thigh_Lateral			R_Knee_Lateral			R_Shank_Lateral			R_Ankle_Lateral			R_Heel			R_Toe			L_Thigh_Lateral			L_Knee_Lateral			L_Shank_Lateral			L_Ankle_Lateral			L_Heel			L_Toe		
		X1	Y1	Z1	X2	Y2	Z2	X3	Y3	Z3	X4	Y4	Z4	X5	Y5	Z5	X6	Y6	Z6	X7	Y7	Z7	X8	Y8	Z8	X9	Y9	Z9	X10	Y10	Z10	X11	Y11	Z11	X12	Y12	Z12	X13	Y13	Z13	X14	Y14	Z14	X15	Y15	Z15	X16	Y16	Z16	X17	Y17	Z17	X18	Y18	Z18	X19	Y19	Z19	X20	Y20	Z20	X21	Y21	Z21	X22	Y22	Z22	X23	Y23	Z23	X24	Y24	Z24	X25	Y25	Z25	X26	Y26	Z26	X27	Y27	Z27
420	4.19000000	-549.834900	1453.097412	485.632111	-519.309448	1482.622192	123.301285	-561.737366	1532.310425	302.038666	-427.236450	1394.172974	302.117004	-563.992615	1132.938354	598.195618	-610.997742	1181.497559	-5.421551	-478.364975	894.251556	565.364136	-522.793625	934.274017	10.022819	-523.062195	935.639526	437.208008	-505.492493	913.819641	143.358047	-715.973694	968.909973	332.055511	-709.763977	950.716064	225.272980	-712.868835	959.813019	278.664246	-686.287109	1215.973755	269.986450	-398.693878	1230.022705	310.455872	-582.352234	737.330872	509.953339	-612.280457	474.213074	431.066193	-685.648804	292.957794	479.989197	-697.082825	72.440826	370.804932	-735.300171	59.360313	313.701660	-555.176025	44.365479	390.653992	-508.558411	678.225891	74.520950	-417.946960	477.577301	156.235413	-444.106079	335.988068	100.603889	-437.096039	74.300636	194.013245	-472.017609	55.638737	258.242706	-291.633301	42.058353	176.290649
421	4.20000000	-545.994690	1454.068237	483.710754	-516.357727	1481.185425	120.640686	-558.340515	1532.387207	299.634155	-423.589355	1394.323242	300.116058	-560.978455	1134.129517	597.109070	-609.261658	1179.332397	-5.476265	-476.156952	895.097504	564.338318	-521.796097	931.950592	10.324778	-519.264648	935.570312	437.749634	-500.866699	913.743225	143.993942	-711.924072	968.418213	332.264862	-705.466736	950.510498	225.472610	-708.695404	959.464355	278.868736	-682.375977	1215.746460	269.518066	-394.912354	1230.331421	309.369232	-577.856201	736.524109	510.166992	-608.650757	473.674652	431.053009	-683.085815	292.830078	479.828461	-696.700317	72.579475	370.678864	-735.061707	59.630611	313.647797	-555.038269	44.391655	390.598145	-504.911682	677.439209	75.291008	-415.117584	476.825073	157.571960	-442.050262	335.271851	102.206261	-437.239441	74.110573	195.833847	-472.028564	55.455330	260.049835	-292.097076	41.871883	176.919693
422	4.21000000	-542.115723	1455.153564	481.787140	-513.500610	1479.837891	118.004593	-554.974609	1532.537109	297.220673	-419.947418	1394.571411	298.097229	-557.876831	1135.447388	596.036316	-607.673523	1177.268433	-5.428208	-473.827255	896.085205	563.281616	-521.008560	929.704987	10.764930	-515.466980	935.493835	438.222351	-496.202087	913.838257	144.571625	-707.844849	967.986511	332.402100	-701.132935	950.442383	225.590607	-704.488892	959.214447	278.996353	-678.449768	1215.581299	269.106476	-391.097290	1230.751465	308.266998	-573.305237	735.696167	510.257629	-604.716125	473.119263	430.949677	-680.291931	292.730408	479.593750	-696.260437	72.769814	370.537018	-734.768127	59.958138	313.573975	-554.866028	44.417332	390.533813	-501.048248	677.119141	75.692841	-412.338806	476.246552	158.442612	-439.928925	334.781860	103.225845	-437.586548	74.005669	196.909973	-472.422699	55.373417	260.940125	-292.817139	41.819443	177.142380
423	4.22000000	-538.195801	1456.349609	479.873444	-510.737579	1478.591797	115.413803	-551.640137	1532.760620	294.814514	-416.315826	1394.917603	296.070435	-554.678955	1136.888306	594.989868	-606.218445	1175.321533	-5.269931	-471.361130	897.213654	562.203796	-520.437164	927.544800	11.342863	-511.671753	935.414124	438.616272	-491.513672	914.104126	145.078568	-703.743896	967.623840	332.459625	-696.773376	950.513428	225.619553	-700.258636	959.068634	279.039589	-674.516113	1215.482788	268.756378	-387.255188	1231.279785	307.154999	-568.736084	734.871582	510.209503	-600.545715	472.565186	430.755768	-677.337463	292.679779	479.290588	-695.773132	73.022011	370.386719	-734.425049	60.350372	313.485382	-554.663391	44.440113	390.464569	-497.057312	677.219543	75.716362	-409.671997	475.818085	158.862000	-437.788818	334.464081	103.707146	-437.987335	73.952019	197.358200	-473.018555	55.368488	261.086426	-293.622040	41.861103	177.037735
424	4.23000000	-534.234436	1457.649902	477.981323	-508.066559	1477.457275	112.887650	-548.337524	1533.057007	292.431824	-412.699524	1395.360107	294.045563	-551.376404	1138.446045	593.983154	-604.878723	1173.504395	-4.996471	-468.743484	898.479919	561.114563	-520.083527	925.475677	12.054617	-507.880249	935.336243	438.921814	-486.815948	914.536377	145.502075	-699.628540	967.337769	332.430145	-692.398499	950.721558	225.552582	-696.013519	959.029663	278.991364	-670.582520	1215.453125	268.469757	-383.393219	1231.911133	306.038391	-564.184875	734.077332	510.010651	-596.214966	472.032654	430.473389	-674.293884	292.699707	478.927124	-695.249329	73.346100	370.236176	-734.039917	60.815903	313.388733	-554.435425	44.457481	390.394653	-493.040192	677.663086	75.377327	-407.168762	475.511627	158.867905	-435.708160	334.264740	103.725990	-438.342743	73.921349	197.320663	-473.678192	55.416691	260.692261	-294.394226	41.961086	176.691483
425	4.24000000	-530.232727	1459.045044	476.121796	-505.483948	1476.442261	110.443443	-545.067200	1533.423950	290.088409	-409.103149	1395.895752	292.032135	-547.961609	1140.112427	593.030029	-603.634033	1171.826782	-4.605756	-465.959183	899.879456	560.023499	-519.944824	923.501709	12.892553	-504.092560	935.265686	439.129883	-482.122864	915.126526	145.829849	-695.506165	967.134399	332.307251	-688.018250	951.061340	225.383942	-691.762207	959.097870	278.845596	-666.656372	1215.493896	268.245758	-379.518921	1232.638916	304.921448	-559.684875	733.341003	509.654022	-591.801636	471.543060	430.107330	-671.230408	292.810699	478.513702	-694.700317	73.751381	370.094025	-733.621765	61.363888	313.291931	-554.187927	44.467064	390.328949	-489.099426	678.352722	74.715538	-404.866028	475.298309	158.517807	-433.776703	334.136292	103.377426	-438.598114	73.891754	196.945206	-474.303894	55.495419	259.962891	-295.063568	42.090092	176.188721
426	4.25000000	-526.193604	1460.523071	474.304932	-502.984558	1475.552490	108.096062	-541.829468	1533.857788	287.799377	-405.531036	1396.519531	290.039429	-544.427734	1141.876343	592.143860	-602.462769	1170.295898	-4.098935	-462.993149	901.405518	558.939972	-520.013321	921.625946	13.845317	-500.307983	935.208923	439.232422	-477.447632	915.862366	146.050461	-691.383484	967.017883	332.085968	-683.642334	951.524353	225.109482	-687.512909	959.271118	278.597725	-662.744690	1215.604370	268.080688	-375.640167	1233.454712	303.807343	-555.264648	732.690063	509.138428	-587.382507	471.117828	429.665009	-668.211060	293.030914	478.062653	-694.137268	74.245689	369.968628	-733.180908	62.003250	313.203552	-553.927551	44.466896	390.272522	-485.327301	679.183838	73.789429	-402.783356	475.151337	157.883316	-432.072327	334.041412	102.763336	-438.733856	73.848343	196.368958	-474.833405	55.585308	259.081696	-295.597961	42.226433	175.607880
427	4.26000000	-522.121765	1462.069702	472.539673	-500.561554	1474.791626	105.857605	-538.624329	1534.353760	285.578766	-401.987091	1397.224854	288.075989	-540.768799	1143.725220	591.337036	-601.342163	1168.915894	-3.480649	-459.830856	903.049622	557.872986	-520.276825	919.850586	14.897950	-496.525055	935.172607	439.222870	-472.802795	916.728638	146.153854	-687.267212	966.990540	331.763245	-679.279846	952.099487	224.727188	-683.273529	959.545013	278.245216	-658.853882	1215.783203	267.968262	-371.764771	1234.348755	302.697968	-550.947205	732.149536	508.469208	-583.030090	470.777161	429.156219	-665.292419	293.374817	477.587952	-693.570740	74.834778	369.867676	-732.728210	62.741726	313.132599	-553.661255	44.455730	390.230377	-481.794098	680.057251	72.668610	-400.922607	475.047943	157.043762	-430.641266	333.954224	101.982445	-438.755463	73.783195	195.707184	-475.235687	55.672142	258.194305	-295.992950	42.356258	175.016418
428	4.27000000	-518.023376	1463.668945	470.833557	-498.206573	1474.161011	103.737244	-535.451660	1534.906006	283.439362	-398.474640	1398.004028	286.149597	-536.979675	1145.644165	590.620117	-600.249451	1167.688965	-2.759217	-456.458389	904.801239	556.831329	-520.718872	918.177643	16.032134	-492.741943	935.163574	439.096405	-468.199890	917.707520	146.131790	-683.163269	967.052673	331.338440	-674.939331	952.773682	224.237686	-679.051300	959.913177	277.788063	-654.989807	1216.027222	267.899811	-367.900452	1235.310181	301.593903	-546.750244	731.740906	507.658386	-578.809265	470.538879	428.592712	-662.521179	293.852051	477.104431	-693.010376	75.521698	369.797577	-732.274109	63.584858	313.087738	-553.395874	44.433277	390.207123	-478.538635	680.889709	71.425674	-399.269867	474.970490	156.079437	-429.487701	333.859894	101.123604	-438.684082	73.694725	195.047791	-475.505798	55.747402	257.400757	-296.261841	42.472935	174.468689
